<?xml version="1.0" standalone="no"?>
<!DOCTYPE svg PUBLIC "-//W3C//DTD SVG 20010904//EN"
 "http://www.w3.org/TR/2001/REC-SVG-20010904/DTD/svg10.dtd">
<svg version="1.0" xmlns="http://www.w3.org/2000/svg"
 width="512.000000pt" height="512.000000pt" viewBox="0 0 512.000000 512.000000"
 preserveAspectRatio="xMidYMid meet">

<g transform="translate(0.000000,512.000000) scale(0.100000,-0.100000)"
fill="#000000" stroke="none">
<path d="M2325 4868 c-692 -69 -1333 -462 -1711 -1048 -498 -771 -497 -1763 4
-2525 101 -154 175 -245 303 -374 129 -128 220 -202 374 -303 912 -599 2136
-470 2907 305 670 675 862 1680 487 2556 -231 538 -679 985 -1220 1214 -357
152 -762 214 -1144 175z m478 -163 c265 -31 497 -101 732 -220 957 -484 1411
-1592 1071 -2609 -162 -485 -489 -895 -927 -1162 -613 -374 -1391 -414 -2044
-105 -989 469 -1472 1612 -1119 2647 327 958 1286 1566 2287 1449z"/>
<path d="M1525 3880 c-165 -99 -306 -188 -313 -197 -31 -41 12 -391 83 -668
141 -557 389 -1000 774 -1386 235 -234 441 -384 736 -534 162 -83 390 -175
432 -175 24 0 68 40 281 253 233 233 252 255 252 287 0 32 -22 57 -308 342
-254 254 -312 308 -335 308 -15 0 -126 -49 -246 -110 l-219 -109 -89 62 c-48
34 -140 114 -203 177 -198 198 -334 430 -405 693 l-26 97 171 168 c138 135
170 172 170 194 0 36 -363 763 -385 772 -44 17 -80 0 -370 -174z m436 -292
l141 -281 -161 -161 c-160 -160 -161 -161 -161 -206 0 -54 39 -222 74 -312 58
-155 160 -331 272 -469 133 -164 429 -412 517 -434 20 -5 73 17 242 100 l217
108 239 -239 239 -239 -183 -183 -183 -183 -80 31 c-863 343 -1464 1037 -1689
1950 -59 241 -97 517 -73 531 7 4 110 66 228 138 118 72 216 130 217 131 2 0
66 -127 144 -282z"/>
<path d="M2590 3880 c-26 -26 -27 -83 0 -110 21 -21 25 -22 145 -40 114 -17
245 -62 357 -122 384 -208 608 -592 608 -1045 0 -98 1 -102 26 -122 35 -28 67
-26 101 3 l28 24 -1 139 c0 158 -13 248 -56 383 -61 191 -166 367 -307 513
-190 198 -417 323 -680 377 -130 26 -195 26 -221 0z"/>
<path d="M2623 3430 c-27 -11 -43 -40 -43 -79 0 -43 29 -68 87 -76 181 -24
354 -120 458 -255 94 -123 144 -270 145 -426 0 -67 3 -84 20 -102 41 -44 102
-35 131 20 18 33 5 227 -21 318 -62 218 -230 419 -437 523 -102 52 -292 95
-340 77z"/>
</g>
</svg>
