<?xml version="1.0" standalone="no"?>
<!DOCTYPE svg PUBLIC "-//W3C//DTD SVG 20010904//EN"
 "http://www.w3.org/TR/2001/REC-SVG-20010904/DTD/svg10.dtd">
<svg version="1.0" xmlns="http://www.w3.org/2000/svg"
 width="512.000000pt" height="512.000000pt" viewBox="0 0 512.000000 512.000000"
 preserveAspectRatio="xMidYMid meet">

<g transform="translate(0.000000,512.000000) scale(0.100000,-0.100000)"
fill="#000000" stroke="none">
<path d="M2325 4868 c-692 -69 -1333 -462 -1711 -1048 -498 -771 -497 -1763 4
-2525 101 -154 175 -245 303 -374 129 -128 220 -202 374 -303 912 -599 2136
-470 2907 305 670 675 862 1680 487 2556 -231 538 -679 985 -1220 1214 -357
152 -762 214 -1144 175z m478 -163 c265 -31 497 -101 732 -220 957 -484 1411
-1592 1071 -2609 -162 -485 -489 -895 -927 -1162 -613 -374 -1391 -414 -2044
-105 -989 469 -1472 1612 -1119 2647 327 958 1286 1566 2287 1449z"/>
<path d="M2165 4015 c-388 -62 -732 -297 -906 -620 -87 -161 -129 -325 -129
-505 0 -330 138 -627 392 -844 l41 -36 -67 -224 c-65 -215 -67 -226 -52 -254
35 -68 62 -61 357 98 l261 140 85 -15 c175 -31 433 -15 604 35 369 110 668
380 795 719 47 126 66 228 66 366 2 313 -119 589 -353 809 -171 161 -363 261
-609 317 -115 27 -362 34 -485 14z m388 -160 c405 -61 742 -333 857 -692 75
-234 58 -468 -51 -687 -143 -287 -430 -496 -771 -561 -117 -22 -327 -20 -448
5 l-95 19 -85 -44 c-47 -24 -134 -70 -195 -103 -60 -33 -111 -59 -113 -57 -2
1 18 71 43 155 26 86 43 160 40 171 -4 10 -45 51 -92 90 -154 129 -261 290
-319 484 -25 82 -28 104 -28 250 0 145 3 168 27 248 47 153 118 275 227 391
251 266 622 388 1003 331z"/>
<path d="M1777 3318 c-25 -20 -38 -64 -27 -92 22 -58 6 -57 625 -54 l567 3 19
24 c26 32 25 82 -4 109 l-23 22 -570 0 c-441 0 -574 -3 -587 -12z"/>
<path d="M1778 2936 c-26 -19 -39 -62 -28 -90 22 -58 6 -57 625 -54 l567 3 19
24 c28 35 25 85 -7 110 -26 21 -35 21 -593 21 -448 -1 -570 -3 -583 -14z"/>
<path d="M1770 2545 c-33 -35 -31 -81 4 -112 l27 -23 565 0 565 0 24 25 c35
34 34 86 -1 114 -26 21 -35 21 -594 21 l-567 0 -23 -25z"/>
<path d="M3732 2647 c-32 -34 -27 -70 17 -145 126 -213 129 -445 10 -675 -23
-43 -65 -94 -141 -169 -74 -74 -108 -115 -108 -130 0 -13 11 -59 25 -102 14
-44 23 -81 21 -84 -2 -2 -60 26 -128 61 l-124 65 -69 -14 c-108 -21 -284 -18
-385 6 -104 25 -224 83 -310 149 -87 67 -142 68 -170 2 -18 -44 2 -76 85 -139
88 -65 204 -123 320 -158 73 -21 117 -27 231 -31 86 -3 168 -1 208 6 l67 12
197 -106 c109 -58 209 -105 223 -105 28 0 64 29 73 58 4 10 -15 92 -42 181
l-48 163 59 57 c113 107 197 251 238 406 28 107 30 270 5 380 -19 88 -100 264
-140 308 -33 35 -83 37 -114 4z"/>
</g>
</svg>
