<?xml version="1.0" standalone="no"?>
<!DOCTYPE svg PUBLIC "-//W3C//DTD SVG 20010904//EN"
 "http://www.w3.org/TR/2001/REC-SVG-20010904/DTD/svg10.dtd">
<svg version="1.0" xmlns="http://www.w3.org/2000/svg"
 width="512.000000pt" height="512.000000pt" viewBox="0 0 512.000000 512.000000"
 preserveAspectRatio="xMidYMid meet">

<g transform="translate(0.000000,512.000000) scale(0.100000,-0.100000)"
fill="#000000" stroke="none">
<path d="M2060 4713 c-52 -9 -157 -46 -215 -76 -34 -18 -97 -68 -145 -114
l-84 -82 -34 20 c-141 82 -345 78 -485 -11 -107 -68 -197 -195 -231 -326 -20
-77 -20 -221 -1 -294 38 -143 142 -281 260 -342 l65 -33 2 -155 c3 -150 4
-155 26 -165 20 -9 22 -16 22 -100 l0 -90 -34 -27 c-83 -66 -111 -209 -62
-313 38 -83 118 -141 207 -152 30 -4 49 -11 49 -18 0 -7 22 -57 49 -112 62
-121 158 -243 263 -331 l80 -67 -103 -5 c-57 -3 -110 -9 -116 -13 -9 -5 -13
-34 -13 -80 l0 -72 -102 -33 c-114 -36 -312 -129 -400 -189 -352 -236 -546
-599 -574 -1073 -6 -98 -5 -112 11 -130 18 -20 32 -20 1677 -20 1645 0 1658 0
1678 20 23 23 24 44 9 196 -14 149 -50 304 -97 421 l-39 98 18 48 c24 61 24
72 -2 98 l-21 21 150 412 150 411 109 40 c59 23 129 55 154 72 63 44 129 119
161 184 41 85 208 555 208 586 -1 41 -34 109 -64 128 -28 18 -593 228 -644
240 -17 3 -49 1 -71 -6 -76 -23 -92 -50 -203 -354 l-102 -280 -1 -105 c0 -126
13 -171 90 -298 l54 -89 -124 -344 c-69 -189 -129 -354 -135 -366 -9 -21 -12
-20 -102 48 -110 82 -308 183 -455 230 l-103 33 0 67 c0 93 -9 99 -140 99
l-103 0 29 22 c151 115 303 307 356 451 18 50 24 57 48 57 91 0 202 83 233
175 26 76 22 142 -14 213 -17 34 -44 71 -60 82 -29 21 -29 23 -29 116 0 76 3
94 15 94 27 0 35 39 35 182 l0 143 58 30 c123 63 232 209 267 356 30 130 9
298 -52 412 -36 66 -120 157 -183 197 -138 88 -339 94 -478 14 l-42 -25 -57
61 c-134 145 -311 222 -505 219 -46 -1 -94 -4 -108 -6z m232 -114 c171 -36
319 -156 396 -319 20 -41 36 -76 37 -77 0 -1 24 5 52 14 l51 16 -20 55 c-20
53 -20 56 -2 69 83 61 253 70 353 19 253 -130 310 -507 108 -716 -80 -82 -188
-128 -276 -117 -82 11 -266 39 -269 42 -1 1 11 25 28 52 17 27 42 76 55 109
l24 59 -52 16 -52 17 -17 -44 c-20 -49 -59 -115 -95 -158 l-24 -29 -417 0
-416 0 -35 44 c-18 24 -49 76 -67 116 l-34 72 -48 -16 c-26 -9 -48 -17 -50
-18 -7 -6 41 -111 74 -162 19 -30 34 -56 32 -58 -2 -1 -72 -13 -156 -25 -132
-20 -160 -22 -200 -11 -125 33 -212 106 -269 228 -33 68 -38 88 -41 171 -9
196 73 348 231 429 74 38 198 44 277 14 30 -12 64 -28 74 -36 18 -14 18 -15
-3 -66 -12 -28 -21 -52 -19 -54 3 -2 99 -35 104 -35 1 0 5 12 9 28 13 54 79
156 139 216 134 134 335 194 518 155z m294 -1114 c165 -16 228 -25 377 -51
l87 -16 0 -84 c0 -46 -1 -84 -2 -84 -2 0 -48 9 -103 19 -317 62 -712 84 -1055
61 -186 -13 -438 -46 -567 -75 -22 -5 -23 -3 -23 79 l0 84 88 16 c93 18 364
53 447 59 155 11 606 6 751 -8z m-6 -274 c171 -19 157 -11 162 -91 7 -87 44
-167 99 -210 l39 -32 0 -137 c0 -201 -34 -314 -141 -473 -122 -179 -347 -346
-513 -380 -69 -13 -132 -2 -224 42 -252 119 -467 376 -522 625 -7 28 -11 112
-11 187 l1 138 45 41 c57 53 83 108 91 196 8 84 -5 77 174 93 69 5 143 12 165
14 70 7 536 -3 635 -13z m1631 -137 c162 -59 302 -114 312 -122 9 -8 17 -22
17 -30 0 -24 -180 -514 -205 -557 -53 -92 -124 -144 -268 -194 -173 -60 -222
-39 -325 142 -101 176 -98 219 32 577 85 235 111 290 137 290 4 0 139 -48 300
-106z m-2714 45 c-8 -62 -32 -107 -77 -136 -63 -43 -70 -36 -70 71 l0 94 48
10 c26 5 60 10 76 11 l29 1 -6 -51z m1446 40 l57 -12 0 -93 c0 -107 -7 -114
-70 -71 -51 34 -70 67 -77 130 -7 66 -7 65 90 46z m-1584 -449 c-1 -71 2 -133
6 -139 11 -18 -16 -12 -60 14 -25 14 -49 39 -59 59 -39 82 -5 185 64 197 19 3
38 4 42 2 4 -2 7 -62 7 -133z m1735 97 c29 -40 30 -134 0 -173 -23 -32 -60
-60 -89 -68 -19 -6 -20 -2 -17 127 2 72 5 137 7 143 7 21 76 1 99 -29z m756
-763 l49 -16 -23 -61 c-12 -34 -76 -209 -142 -389 -70 -194 -124 -328 -131
-328 -7 0 -31 7 -53 16 -31 13 -40 21 -35 33 4 9 68 184 142 389 75 204 138
372 140 372 2 0 26 -7 53 -16z m-1820 -256 c64 -33 90 -87 90 -190 l0 -78
-203 0 c-263 0 -247 -11 -247 161 l0 129 158 0 c144 0 162 -2 202 -22z m650
-107 c0 -172 17 -161 -248 -161 l-204 0 4 93 c3 83 6 98 30 129 46 60 73 68
256 68 l162 0 0 -129z m267 -94 c119 -44 316 -161 395 -235 26 -24 26 -25 8
-41 -12 -10 -71 -158 -150 -375 -136 -376 -145 -411 -116 -481 l15 -35 -775 0
-774 0 0 379 0 379 28 11 c15 6 144 57 287 113 l260 102 275 5 c267 6 276 7
313 30 48 30 77 86 77 150 l0 49 58 -18 c31 -10 76 -25 99 -33z m-1387 -11 c0
-103 63 -157 194 -166 l79 -5 -179 -68 c-98 -38 -187 -78 -196 -89 -17 -19
-18 -54 -18 -424 l0 -404 -426 0 -426 0 7 78 c46 535 336 914 843 1102 42 16
87 29 100 30 20 0 22 -5 22 -54z m2063 -456 c5 -5 -43 -151 -107 -326 -130
-358 -139 -374 -219 -374 -23 0 -53 7 -65 16 -27 18 -52 65 -52 96 0 13 52
168 116 345 l117 321 101 -35 c56 -20 105 -39 109 -43z m86 -371 c16 -63 32
-148 36 -189 3 -41 8 -90 11 -107 l5 -33 -131 0 c-71 0 -130 2 -130 6 0 23
166 452 172 446 5 -5 22 -60 37 -123z"/>
<path d="M1775 2915 c-53 -52 -14 -144 62 -145 76 0 115 89 63 145 -32 34 -91
35 -125 0z"/>
<path d="M2459 2930 c-9 -5 -22 -23 -29 -40 -38 -92 80 -166 144 -89 14 17 26
41 26 54 0 13 -12 37 -26 54 -20 24 -34 31 -62 31 -21 0 -44 -5 -53 -10z"/>
<path d="M1951 2389 c-22 -17 -41 -34 -41 -39 0 -16 93 -93 138 -113 68 -31
189 -30 254 2 47 23 138 96 138 110 0 4 -20 22 -44 39 l-43 31 -29 -31 c-38
-40 -99 -68 -150 -68 -47 0 -135 41 -163 75 l-18 24 -42 -30z"/>
<path d="M4119 2953 c-27 -71 -208 -570 -211 -582 -2 -8 16 -20 47 -31 l51
-17 109 301 c59 165 110 306 112 312 3 9 -68 44 -90 44 -4 0 -12 -12 -18 -27z"/>
<path d="M3905 2959 c-59 -161 -164 -453 -162 -454 12 -7 99 -36 101 -34 5 7
166 454 166 462 0 8 -33 22 -75 33 -16 4 -27 1 -30 -7z"/>
<path d="M4249 2722 c-23 -65 -62 -169 -85 -232 -23 -63 -40 -118 -38 -122 4
-6 96 -40 99 -35 14 21 164 460 161 466 -4 5 -26 16 -50 24 l-44 15 -43 -116z"/>
<path d="M1804 1171 c-60 -28 -89 -73 -89 -141 0 -93 61 -153 158 -154 81 0
147 69 147 154 0 113 -115 188 -216 141z m87 -101 c27 -15 26 -66 -2 -80 -16
-9 -26 -8 -45 5 -28 18 -31 41 -7 67 19 21 27 22 54 8z"/>
<path d="M2413 1169 c-55 -27 -87 -78 -87 -138 0 -167 222 -215 294 -65 38 77
5 169 -74 205 -53 24 -82 24 -133 -2z m97 -109 c11 -11 20 -24 20 -30 0 -13
-37 -50 -50 -50 -13 0 -50 37 -50 50 0 6 9 19 20 30 11 11 25 20 30 20 6 0 19
-9 30 -20z"/>
<path d="M1805 786 c-86 -38 -120 -140 -72 -219 33 -54 72 -77 132 -77 92 0
155 62 155 154 0 113 -113 187 -215 142z m93 -108 c28 -28 7 -78 -33 -78 -42
0 -59 44 -29 74 18 19 45 21 62 4z"/>
<path d="M2412 784 c-146 -75 -96 -294 68 -294 76 0 142 56 155 129 9 52 -21
119 -65 151 -42 30 -114 36 -158 14z m103 -114 c27 -30 7 -70 -34 -70 -41 0
-59 32 -36 66 19 29 46 31 70 4z"/>
</g>
</svg>
