<?xml version="1.0" standalone="no"?>
<!DOCTYPE svg PUBLIC "-//W3C//DTD SVG 20010904//EN"
 "http://www.w3.org/TR/2001/REC-SVG-20010904/DTD/svg10.dtd">
<svg version="1.0" xmlns="http://www.w3.org/2000/svg"
 width="512.000000pt" height="512.000000pt" viewBox="0 0 512.000000 512.000000"
 preserveAspectRatio="xMidYMid meet">

<g transform="translate(0.000000,512.000000) scale(0.100000,-0.100000)"
fill="#000000" stroke="none">
<path d="M3610 4673 c-8 -3 -25 -15 -37 -26 -36 -32 -29 -71 23 -149 91 -137
141 -286 131 -396 -7 -75 -27 -121 -95 -226 -115 -174 -131 -373 -51 -618 33
-103 91 -221 124 -254 32 -32 78 -32 110 1 35 34 32 72 -14 163 -73 147 -108
290 -98 407 8 90 31 152 84 231 58 85 81 135 99 211 38 163 -17 378 -147 571
-50 75 -88 100 -129 85z"/>
<path d="M4171 4669 c-66 -26 -67 -81 -2 -179 89 -136 138 -289 126 -389 -10
-76 -26 -116 -83 -204 -126 -193 -146 -383 -65 -632 34 -105 97 -234 130 -264
50 -44 133 -7 133 60 0 16 -16 60 -35 98 -64 125 -105 273 -105 376 0 111 27
189 110 310 117 173 115 387 -5 626 -49 97 -110 184 -141 198 -29 13 -31 13
-63 0z"/>
<path d="M614 4630 c-28 -11 -54 -48 -54 -76 0 -11 20 -52 45 -90 119 -181
162 -354 119 -481 -9 -26 -33 -72 -54 -103 -76 -112 -104 -182 -120 -301 -21
-154 21 -345 115 -528 57 -111 101 -136 158 -91 43 34 43 63 -4 159 -132 271
-139 471 -22 644 114 169 141 320 88 501 -36 126 -127 298 -182 349 -24 21
-63 28 -89 17z"/>
<path d="M1160 4612 c-41 -41 -38 -71 11 -143 86 -126 139 -273 139 -379 -1
-74 -26 -142 -88 -237 -148 -226 -146 -484 6 -791 60 -122 112 -153 167 -97
36 35 32 75 -20 181 -63 129 -88 226 -88 349 -1 121 16 174 91 288 68 104 92
173 99 277 8 137 -37 295 -127 444 -80 132 -135 163 -190 108z"/>
<path d="M2477 3850 c-105 -27 -197 -104 -243 -205 -23 -49 -28 -74 -28 -140
0 -105 33 -182 110 -255 49 -47 54 -55 54 -94 l0 -44 -67 -7 c-346 -35 -763
-208 -1039 -431 -304 -246 -532 -552 -658 -882 -70 -182 -136 -460 -136 -571
0 -20 -3 -52 -6 -73 l-6 -36 -127 -4 c-108 -3 -132 -6 -171 -26 -61 -32 -97
-68 -128 -127 -22 -43 -27 -65 -30 -160 -3 -94 -1 -118 18 -167 25 -68 84
-132 148 -161 l47 -22 2345 0 2345 0 47 22 c64 29 123 93 148 161 19 49 21 73
18 167 -3 95 -8 117 -30 160 -31 59 -67 95 -128 127 -39 20 -63 23 -171 26
l-127 4 -6 36 c-3 21 -6 53 -6 73 0 20 -9 90 -21 155 -89 516 -350 955 -773
1300 -265 216 -698 395 -1038 429 l-68 7 0 44 c0 39 5 47 54 94 77 73 110 150
110 255 0 65 -5 91 -28 141 -54 120 -172 201 -303 209 -37 2 -85 0 -106 -5z
m192 -197 c53 -43 85 -112 77 -167 -8 -54 -40 -103 -86 -133 -75 -49 -79 -57
-82 -146 -3 -69 -6 -82 -20 -85 -16 -3 -18 6 -18 81 0 92 -1 94 -78 148 -127
89 -116 249 23 324 47 25 137 14 184 -22z m171 -722 c215 -32 395 -88 571
-177 605 -304 1000 -871 1068 -1534 6 -56 11 -104 11 -106 0 -2 -115 -4 -255
-4 l-256 0 -24 -25 c-25 -24 -32 -65 -19 -100 17 -43 41 -45 494 -45 473 0
474 0 505 -60 20 -39 20 -161 0 -205 -31 -65 155 -60 -2375 -60 -1954 0 -2311
2 -2333 14 -39 21 -57 69 -57 151 0 78 16 121 53 142 17 10 353 14 1649 18
l1627 5 23 22 c33 33 30 89 -6 119 l-27 24 -1430 0 c-786 0 -1429 2 -1429 4 0
2 5 50 11 106 89 875 756 1575 1629 1710 161 25 408 25 570 1z"/>
</g>
</svg>


