<?xml version="1.0" standalone="no"?>
<!DOCTYPE svg PUBLIC "-//W3C//DTD SVG 20010904//EN"
 "http://www.w3.org/TR/2001/REC-SVG-20010904/DTD/svg10.dtd">
<svg version="1.0" xmlns="http://www.w3.org/2000/svg"
 width="512.000000pt" height="512.000000pt" viewBox="0 0 512.000000 512.000000"
 preserveAspectRatio="xMidYMid meet">

<g transform="translate(0.000000,512.000000) scale(0.100000,-0.100000)"
fill="#000000" stroke="none">
<path d="M2375 4789 c-896 -92 -1568 -584 -1875 -1371 -181 -465 -208 -1010
-74 -1493 221 -794 817 -1362 1614 -1539 206 -45 333 -60 520 -60 604 1 1184
233 1581 634 337 340 549 784 620 1300 8 53 14 185 14 300 0 115 -6 247 -14
300 -82 598 -362 1113 -789 1453 -169 136 -420 274 -627 347 -121 42 -344 95
-485 115 -145 20 -368 27 -485 14z m1377 -1315 c35 -18 76 -73 84 -112 17 -87
55 -44 -794 -895 -433 -433 -804 -799 -824 -813 -48 -34 -121 -36 -170 -6 -18
12 -196 184 -395 384 -387 389 -386 387 -369 469 19 97 144 162 228 119 12 -7
157 -146 321 -309 l297 -296 728 727 c458 458 740 733 762 743 38 16 87 12
132 -11z"/>
</g>
</svg>


