<?xml version="1.0" encoding="UTF-8"?>
<!DOCTYPE svg PUBLIC "-//W3C//DTD SVG 1.1//EN" "http://www.w3.org/Graphics/SVG/1.1/DTD/svg11.dtd">
<svg xmlns="http://www.w3.org/2000/svg" version="1.1" width="512px" height="512px" style="shape-rendering:geometricPrecision; text-rendering:geometricPrecision; image-rendering:optimizeQuality; fill-rule:evenodd; clip-rule:evenodd" xmlns:xlink="http://www.w3.org/1999/xlink">
<g><path style="opacity:0.934" fill="#000000" d="M 288.5,-0.5 C 298.5,-0.5 308.5,-0.5 318.5,-0.5C 368.72,8.54821 400.22,37.8815 413,87.5C 420.983,143.702 400.15,185.202 350.5,212C 345.538,213.932 340.538,215.765 335.5,217.5C 348.249,271.809 330.916,313.309 283.5,342C 269.728,350.091 255.061,355.924 239.5,359.5C 239.167,391.507 239.5,423.507 240.5,455.5C 258.494,460.665 276.494,465.832 294.5,471C 305.428,476.025 309.595,484.525 307,496.5C 304.758,503.23 300.592,508.23 294.5,511.5C 273.167,511.5 251.833,511.5 230.5,511.5C 225.232,506.663 225.232,501.829 230.5,497C 249.833,496.667 269.167,496.333 288.5,496C 293.068,490.845 292.068,487.178 285.5,485C 266.916,479.687 248.249,474.687 229.5,470C 219.455,469.169 209.455,469.502 199.5,471C 181.097,476.135 162.764,481.468 144.5,487C 142.021,490.588 142.688,493.588 146.5,496C 165.5,496.333 184.5,496.667 203.5,497C 206.366,498.393 207.699,500.726 207.5,504C 207.57,507.366 206.237,509.866 203.5,511.5C 182.167,511.5 160.833,511.5 139.5,511.5C 127.187,503.261 124.02,492.261 130,478.5C 132.205,475.96 134.705,473.793 137.5,472C 156.461,466.343 175.461,460.843 194.5,455.5C 195.5,423.507 195.833,391.507 195.5,359.5C 163.44,352.062 136.607,336.062 115,311.5C 98.6505,289.434 92.6505,264.767 97,237.5C 104.463,194.388 112.463,151.388 121,108.5C 124.396,103.287 129.229,100.287 135.5,99.5C 125.722,73.6084 116.222,47.6084 107,21.5C 105.242,15.0076 107.575,11.0076 114,9.5C 116.887,9.90312 119.221,11.2365 121,13.5C 132.003,42.3444 142.503,71.3444 152.5,100.5C 165.85,100.833 179.183,100.499 192.5,99.5C 201.791,44.2118 233.791,10.8784 288.5,-0.5 Z M 302.5,14.5 C 343.089,16.5305 372.589,35.5305 391,71.5C 408.66,121.181 396.16,161.348 353.5,192C 346.737,195.715 339.737,198.882 332.5,201.5C 331.914,201.291 331.414,200.957 331,200.5C 330.323,196.593 329.49,192.759 328.5,189C 357.802,178.033 376.135,157.367 383.5,127C 382.197,120.016 378.197,117.683 371.5,120C 370.584,120.374 369.75,120.874 369,121.5C 367.65,126.387 365.817,131.054 363.5,135.5C 348.837,127.504 334.503,119.004 320.5,110C 334.833,101.833 349.167,93.6667 363.5,85.5C 365.407,89.7272 367.407,93.8938 369.5,98C 372.366,99.4568 375.366,99.7901 378.5,99C 380.333,98.5 381.5,97.3333 382,95.5C 382.658,91.4285 382.325,87.4285 381,83.5C 369.453,53.6164 347.953,35.783 316.5,30C 280.395,26.1395 252.562,39.3061 233,69.5C 227.709,79.2035 224.543,89.5368 223.5,100.5C 218.833,100.5 214.167,100.5 209.5,100.5C 214.059,65.4512 232.059,39.9512 263.5,24C 276.056,18.4435 289.056,15.2768 302.5,14.5 Z M 292.5,45.5 C 293.5,45.5 294.5,45.5 295.5,45.5C 295.833,62.18 295.499,78.8467 294.5,95.5C 280.167,87.3333 265.833,79.1667 251.5,71C 262.249,57.7399 275.916,49.2399 292.5,45.5 Z M 311.5,45.5 C 329.416,48.1246 344.083,56.4579 355.5,70.5C 341.284,79.5295 326.784,88.1962 312,96.5C 311.5,79.5033 311.333,62.5033 311.5,45.5 Z M 243.5,85.5 C 252.274,90.0556 260.94,94.8889 269.5,100C 259.506,100.5 249.506,100.666 239.5,100.5C 240.056,95.2735 241.39,90.2735 243.5,85.5 Z M 135.5,116.5 C 137.792,116.244 139.959,116.577 142,117.5C 146.975,131.427 152.142,145.261 157.5,159C 147.308,159.865 137.308,161.698 127.5,164.5C 129.274,148.521 131.941,132.521 135.5,116.5 Z M 158.5,117.5 C 205.33,116.501 252.33,116.168 299.5,116.5C 303.129,135.802 306.295,155.135 309,174.5C 285.755,185.82 261.589,188.32 236.5,182C 222.935,176.885 209.602,171.218 196.5,165C 189.233,162.85 181.9,161.017 174.5,159.5C 169.667,145.191 164.333,131.191 158.5,117.5 Z M 317.5,127.5 C 330.507,134.667 343.174,142.334 355.5,150.5C 347.67,160.673 337.67,167.673 325.5,171.5C 323.048,156.786 320.381,142.119 317.5,127.5 Z M 151.5,175.5 C 155.5,175.5 159.5,175.5 163.5,175.5C 176.027,211.246 188.86,246.912 202,282.5C 205.357,290.125 210.357,291.459 217,286.5C 218.422,283.97 218.755,281.303 218,278.5C 205.371,244.939 193.371,211.272 182,177.5C 188.214,179.461 194.381,181.627 200.5,184C 225.595,198.952 252.595,204.286 281.5,200C 292.39,197.867 303.057,195.034 313.5,191.5C 316.115,208.523 318.948,225.523 322,242.5C 325.233,272.861 315.067,297.695 291.5,317C 267.752,335.804 240.752,345.471 210.5,346C 173.927,340.979 144.761,323.813 123,294.5C 115.666,281.999 111.833,268.499 111.5,254C 114.557,230.714 118.39,207.547 123,184.5C 123.652,182.277 125.152,181.11 127.5,181C 135.558,178.826 143.558,176.992 151.5,175.5 Z M 258.5,265.5 C 269.521,267.006 273.355,273.006 270,283.5C 263.333,291.5 256.667,291.5 250,283.5C 246.652,274.532 249.485,268.532 258.5,265.5 Z M 211.5,362.5 C 215.5,362.5 219.5,362.5 223.5,362.5C 223.5,392.833 223.5,423.167 223.5,453.5C 219.5,453.5 215.5,453.5 211.5,453.5C 211.5,423.167 211.5,392.833 211.5,362.5 Z"/></g>
<g><path style="opacity:0.88" fill="#000000" d="M 224.5,223.5 C 228.514,223.334 232.514,223.501 236.5,224C 240.753,227.42 241.587,231.587 239,236.5C 234.177,239.83 229.01,240.33 223.5,238C 219.276,232.764 219.609,227.931 224.5,223.5 Z"/></g>
<g><path style="opacity:0.927" fill="#000000" d="M 257.5,249.5 C 280.888,251.724 290.388,264.39 286,287.5C 276.473,305.009 262.639,309.509 244.5,301C 231.499,289.861 228.999,276.695 237,261.5C 242.317,254.637 249.151,250.637 257.5,249.5 Z M 258.5,265.5 C 249.485,268.532 246.652,274.532 250,283.5C 256.667,291.5 263.333,291.5 270,283.5C 273.355,273.006 269.521,267.006 258.5,265.5 Z"/></g>
</svg>
