<?xml version="1.0" standalone="no"?>
<!DOCTYPE svg PUBLIC "-//W3C//DTD SVG 20010904//EN"
 "http://www.w3.org/TR/2001/REC-SVG-20010904/DTD/svg10.dtd">
<svg version="1.0" xmlns="http://www.w3.org/2000/svg"
 width="512.000000pt" height="512.000000pt" viewBox="0 0 512.000000 512.000000"
 preserveAspectRatio="xMidYMid meet">

<g transform="translate(0.000000,512.000000) scale(0.100000,-0.100000)"
fill="#000000" stroke="none">
<path d="M2325 4868 c-692 -69 -1333 -462 -1711 -1048 -498 -771 -497 -1763 4
-2525 101 -154 175 -245 303 -374 129 -128 220 -202 374 -303 912 -599 2136
-470 2907 305 670 675 862 1680 487 2556 -231 538 -679 985 -1220 1214 -357
152 -762 214 -1144 175z m478 -163 c265 -31 497 -101 732 -220 957 -484 1411
-1592 1071 -2609 -162 -485 -489 -895 -927 -1162 -613 -374 -1391 -414 -2044
-105 -989 469 -1472 1612 -1119 2647 327 958 1286 1566 2287 1449z"/>
<path d="M1460 3700 c-180 -25 -323 -155 -364 -330 -13 -55 -16 -177 -16 -807
0 -516 3 -758 11 -795 34 -159 145 -281 297 -328 61 -19 95 -20 644 -20 l579
0 24 25 c40 39 32 96 -16 120 -24 13 -117 15 -596 15 l-568 0 -50 24 c-27 12
-67 42 -88 66 -77 84 -72 25 -72 891 l0 775 30 60 c41 79 113 130 205 145 41
6 458 9 1145 7 1072 -3 1080 -3 1125 -24 65 -30 107 -69 138 -128 l27 -51 3
-375 c1 -206 4 -385 7 -397 7 -29 59 -57 91 -49 14 4 33 15 44 26 19 19 20 35
20 393 0 303 -3 384 -15 432 -46 176 -188 302 -367 325 -87 11 -2157 11 -2238
0z"/>
<path d="M1647 3158 c-27 -21 -36 -60 -22 -93 12 -31 1 -23 725 -473 168 -104
221 -132 240 -128 35 6 909 550 938 583 43 48 6 123 -59 123 -27 0 -210 -111
-865 -520 -20 -12 -55 8 -451 253 -438 272 -465 286 -506 255z"/>
<path d="M3260 2524 c-180 -38 -358 -179 -439 -346 -95 -195 -95 -395 0 -588
84 -169 261 -307 444 -345 127 -27 290 -14 329 25 29 28 27 87 -3 111 -21 18
-35 19 -140 13 -95 -6 -128 -4 -176 11 -192 55 -330 205 -365 396 -62 338 251
639 592 568 170 -35 316 -169 369 -338 26 -86 28 -215 2 -291 -18 -54 -19 -55
-60 -58 l-43 -3 0 221 c0 268 -7 290 -89 290 -15 0 -36 -9 -45 -19 -17 -18
-19 -18 -78 13 -57 29 -69 31 -162 31 -86 0 -107 -4 -144 -23 -67 -35 -129
-98 -159 -161 -24 -49 -28 -68 -28 -146 0 -78 4 -97 28 -146 85 -173 301 -244
466 -153 53 29 51 29 51 1 0 -13 10 -33 23 -45 22 -20 33 -22 158 -22 158 0
164 3 202 88 41 91 60 178 60 277 -1 143 -33 249 -115 371 -145 216 -418 324
-678 268z m219 -479 c68 -34 108 -115 96 -193 -9 -60 -70 -124 -133 -141 -80
-22 -165 17 -201 92 -45 92 -16 182 74 238 37 23 124 25 164 4z"/>
</g>
</svg>
