<?xml version="1.0" standalone="no"?>
<!DOCTYPE svg PUBLIC "-//W3C//DTD SVG 20010904//EN"
 "http://www.w3.org/TR/2001/REC-SVG-20010904/DTD/svg10.dtd">
<svg version="1.0" xmlns="http://www.w3.org/2000/svg"
 width="512.000000pt" height="512.000000pt" viewBox="0 0 512.000000 512.000000"
 preserveAspectRatio="xMidYMid meet">

<g transform="translate(0.000000,512.000000) scale(0.100000,-0.100000)"
fill="#000000" stroke="none">
<path d="M2325 4868 c-692 -69 -1333 -462 -1711 -1048 -498 -771 -497 -1763 4
-2525 101 -154 175 -245 303 -374 129 -128 220 -202 374 -303 912 -599 2136
-470 2907 305 670 675 862 1680 487 2556 -231 538 -679 985 -1220 1214 -357
152 -762 214 -1144 175z m478 -163 c265 -31 497 -101 732 -220 957 -484 1411
-1592 1071 -2609 -162 -485 -489 -895 -927 -1162 -613 -374 -1391 -414 -2044
-105 -989 469 -1472 1612 -1119 2647 327 958 1286 1566 2287 1449z"/>
<path d="M2915 4225 c-271 -60 -465 -299 -466 -573 0 -42 4 -98 10 -123 57
-256 300 -681 468 -820 103 -85 158 -77 274 40 138 138 324 454 399 681 72
215 44 407 -83 576 -137 181 -378 269 -602 219z m285 -174 c109 -41 208 -140
252 -251 35 -86 32 -228 -6 -339 -62 -180 -221 -451 -338 -577 l-60 -64 -32
26 c-115 98 -306 414 -377 626 -77 229 -5 436 192 551 102 60 255 71 369 28z"/>
<path d="M2944 3939 c-82 -24 -181 -124 -204 -207 -15 -55 -12 -152 6 -205 21
-61 94 -141 158 -174 162 -83 370 0 435 172 30 80 26 177 -12 251 -33 64 -113
137 -174 158 -50 17 -159 20 -209 5z m186 -171 c69 -47 91 -144 47 -209 -50
-74 -129 -98 -204 -63 -106 51 -113 212 -11 274 47 28 125 27 168 -2z"/>
<path d="M1569 3397 c-30 -13 -72 -37 -93 -53 -53 -41 -113 -135 -126 -197 -8
-37 -10 -260 -8 -762 l3 -710 32 -60 c58 -110 166 -188 282 -202 46 -5 51 -8
65 -42 20 -51 33 -128 42 -246 6 -86 10 -102 31 -123 50 -49 124 -16 434 195
355 241 252 213 787 213 537 0 540 0 650 104 24 23 58 68 75 101 l32 60 3 719
c3 795 3 797 -59 859 -25 24 -35 28 -62 23 -62 -12 -82 -67 -52 -139 13 -31
15 -136 15 -725 l0 -689 -23 -44 c-13 -24 -43 -57 -66 -74 l-43 -30 -486 -5
c-268 -3 -496 -9 -507 -14 -47 -22 -182 -108 -364 -233 -107 -73 -197 -133
-201 -133 -4 0 -10 26 -14 58 -12 104 -46 212 -80 250 -35 40 -97 71 -142 72
-49 0 -128 46 -160 92 l-29 41 -3 691 c-2 473 0 703 8 728 14 48 53 94 101
118 36 19 61 20 382 20 354 0 398 4 417 40 17 32 11 75 -13 98 -23 22 -27 22
-398 22 -367 0 -375 -1 -430 -23z"/>
<path d="M1814 2946 c-48 -21 -61 -89 -24 -126 19 -19 33 -20 414 -20 l395 0
20 26 c28 35 26 67 -3 101 l-24 28 -374 2 c-299 2 -379 0 -404 -11z"/>
<path d="M1813 2520 c-47 -19 -58 -92 -20 -128 l23 -22 532 0 c519 0 533 1
552 20 30 30 30 83 -1 115 -19 19 -34 20 -542 22 -289 1 -532 -2 -544 -7z"/>
<path d="M1795 2075 c-35 -34 -34 -86 1 -114 26 -21 33 -21 764 -21 731 0 738
0 764 21 35 28 36 80 1 114 l-24 25 -741 0 -741 0 -24 -25z"/>
</g>
</svg>
