<?xml version="1.0" standalone="no"?>
<!DOCTYPE svg PUBLIC "-//W3C//DTD SVG 20010904//EN"
 "http://www.w3.org/TR/2001/REC-SVG-20010904/DTD/svg10.dtd">
<svg version="1.0" xmlns="http://www.w3.org/2000/svg"
 width="512.000000pt" height="512.000000pt" viewBox="0 0 512.000000 512.000000"
 preserveAspectRatio="xMidYMid meet">

<g transform="translate(0.000000,512.000000) scale(0.100000,-0.100000)"
fill="#000000" stroke="none">
<path d="M2325 4868 c-692 -69 -1333 -462 -1711 -1048 -498 -771 -497 -1763 4
-2525 101 -154 175 -245 303 -374 129 -128 220 -202 374 -303 912 -599 2136
-470 2907 305 670 675 862 1680 487 2556 -231 538 -679 985 -1220 1214 -357
152 -762 214 -1144 175z m478 -163 c265 -31 497 -101 732 -220 957 -484 1411
-1592 1071 -2609 -162 -485 -489 -895 -927 -1162 -613 -374 -1391 -414 -2044
-105 -989 469 -1472 1612 -1119 2647 327 958 1286 1566 2287 1449z"/>
<path d="M1937 3549 c-138 -33 -268 -163 -306 -304 -6 -22 -40 -335 -76 -695
-65 -640 -66 -656 -51 -719 29 -119 108 -208 223 -251 54 -20 67 -20 1061 -18
l1007 3 67 32 c111 52 202 153 234 259 19 65 147 1326 140 1392 -10 112 -89
225 -193 278 l-58 29 -1005 2 c-562 0 -1022 -3 -1043 -8z m2026 -163 c18 -7
47 -29 64 -49 62 -70 62 -47 -10 -772 -66 -650 -67 -658 -95 -709 -33 -58 -95
-110 -150 -126 -24 -6 -369 -10 -1005 -10 -947 0 -969 0 -1007 20 -21 11 -50
34 -63 52 -52 70 -52 49 18 747 36 355 69 662 75 681 19 67 92 142 165 168 20
7 346 11 1003 11 796 1 979 -1 1005 -13z"/>
<path d="M2099 3090 c-29 -17 -43 -65 -27 -96 19 -41 752 -528 793 -528 21 0
154 73 445 243 228 134 423 252 433 263 39 45 1 128 -59 128 -16 0 -174 -87
-420 -231 -246 -144 -398 -227 -406 -223 -7 5 -165 108 -351 231 -338 223
-366 237 -408 213z"/>
<path d="M909 2941 c-36 -36 -37 -73 -4 -106 l24 -25 226 0 226 0 24 25 c33
33 32 70 -4 106 l-29 29 -217 0 -217 0 -29 -29z"/>
<path d="M956 2619 c-20 -16 -26 -29 -26 -59 0 -30 6 -43 26 -59 25 -19 40
-21 206 -21 l180 0 29 29 c16 16 29 39 29 51 0 12 -13 35 -29 51 l-29 29 -180
0 c-166 0 -181 -2 -206 -21z"/>
<path d="M1031 2284 c-27 -34 -27 -74 -1 -102 28 -30 52 -34 180 -30 103 3
113 5 131 27 26 32 25 82 -4 109 -21 20 -34 22 -154 22 -130 0 -132 0 -152
-26z"/>
</g>
</svg>
