<?xml version="1.0" standalone="no"?>
<!DOCTYPE svg PUBLIC "-//W3C//DTD SVG 20010904//EN"
 "http://www.w3.org/TR/2001/REC-SVG-20010904/DTD/svg10.dtd">
<svg version="1.0" xmlns="http://www.w3.org/2000/svg"
 width="512.000000pt" height="512.000000pt" viewBox="0 0 512.000000 512.000000"
 preserveAspectRatio="xMidYMid meet">

<g transform="translate(0.000000,512.000000) scale(0.100000,-0.100000)"
fill="#000000" stroke="none">
<path d="M2315 5109 c-800 -83 -1501 -518 -1927 -1196 -487 -774 -516 -1777
-75 -2578 196 -357 488 -676 822 -900 334 -223 690 -357 1110 -417 119 -17
512 -16 635 1 622 86 1149 361 1572 820 349 378 572 862 650 1406 17 118 17
512 0 630 -83 583 -321 1073 -715 1474 -404 411 -899 662 -1472 747 -123 18
-478 26 -600 13z m610 -134 c793 -123 1476 -625 1825 -1340 115 -235 176 -427
222 -695 19 -106 22 -164 22 -380 0 -281 -12 -385 -73 -623 -126 -488 -435
-963 -831 -1279 -268 -214 -592 -377 -907 -459 -235 -60 -343 -73 -618 -73
-267 -1 -353 8 -575 60 -699 165 -1303 649 -1620 1299 -85 173 -131 299 -175
469 -58 226 -70 331 -70 606 0 275 12 380 70 606 158 618 556 1153 1105 1484
276 167 599 283 900 324 63 9 129 18 145 20 76 10 476 -2 580 -19z"/>
<path d="M2615 3860 c-144 -18 -304 -129 -374 -260 -51 -95 -61 -154 -61 -357
l0 -183 -99 0 c-91 0 -102 -2 -128 -24 l-28 -24 -3 -211 c-4 -286 -1 -291 169
-291 l89 0 0 -600 0 -601 24 -24 c33 -33 77 -37 328 -33 l218 3 27 28 28 27 3
600 3 600 144 0 c210 0 201 -13 226 319 l13 174 -32 28 -32 29 -160 0 -160 0
0 114 c0 150 -6 146 191 146 l147 0 26 31 26 31 0 209 0 209 -29 32 -29 33
-229 2 c-125 0 -259 -3 -298 -7z m465 -270 l0 -160 -139 0 c-127 0 -141 -2
-171 -22 -72 -50 -75 -58 -78 -274 l-3 -194 192 0 192 0 -6 -62 c-4 -35 -9
-105 -13 -155 l-7 -93 -178 0 -179 0 0 -630 0 -630 -195 0 -195 0 -2 628 -3
627 -127 3 -128 3 0 154 0 154 128 3 127 3 5 260 5 260 29 60 c54 109 160 191
278 214 24 5 139 9 256 10 l212 1 0 -160z"/>
</g>
</svg>
