<?xml version="1.0" standalone="no"?>
<!DOCTYPE svg PUBLIC "-//W3C//DTD SVG 20010904//EN"
 "http://www.w3.org/TR/2001/REC-SVG-20010904/DTD/svg10.dtd">
<svg version="1.0" xmlns="http://www.w3.org/2000/svg"
 width="512.000000pt" height="512.000000pt" viewBox="0 0 512.000000 512.000000"
 preserveAspectRatio="xMidYMid meet">

<g transform="translate(0.000000,512.000000) scale(0.100000,-0.100000)"
fill="#000000" stroke="none">
<path d="M2640 4870 l0 -250 345 0 c190 0 345 -2 345 -4 0 -2 11 -111 25 -242
14 -131 25 -246 25 -256 0 -17 -23 -18 -445 -18 l-445 0 0 -180 0 -180 -165 0
-165 0 0 -255 0 -255 89 0 89 0 12 -117 c7 -65 18 -169 25 -231 8 -81 8 -115
1 -117 -6 -2 -52 -5 -103 -7 l-92 -4 -264 540 -264 541 -52 0 -52 0 -249 -510
-250 -510 63 -32 c34 -18 65 -32 68 -33 3 0 97 189 210 420 112 231 207 420
210 420 6 0 429 -864 429 -877 0 -4 -35 -26 -78 -47 -59 -31 -100 -63 -173
-136 -86 -85 -102 -107 -147 -200 -59 -122 -82 -216 -82 -333 0 -69 4 -92 26
-135 27 -55 76 -104 130 -129 32 -16 33 -18 27 -57 -9 -52 -9 -80 0 -133 6
-37 5 -43 -10 -43 -23 0 -70 -29 -107 -66 -70 -71 -87 -188 -40 -282 28 -56
67 -92 128 -117 32 -13 36 -19 30 -38 -4 -12 -7 -53 -7 -91 l1 -69 -156 6
c-183 7 -282 27 -435 87 -132 51 -259 131 -379 237 -113 100 -155 130 -217
151 l-48 17 309 629 c169 346 308 633 308 638 0 10 -119 70 -128 64 -4 -2
-153 -304 -332 -669 l-324 -666 -58 -21 c-148 -54 -251 -195 -265 -361 -12
-140 37 -249 168 -373 343 -326 762 -518 1238 -566 66 -6 656 -10 1650 -10
l1547 0 167 1607 c92 885 168 1611 167 1616 0 4 41 7 90 7 l90 0 0 255 0 255
-165 0 -165 0 0 180 0 180 -220 0 -220 0 0 -75 0 -75 145 0 145 0 0 -105 0
-105 -1000 0 -1000 0 0 105 0 105 775 0 775 0 0 75 0 75 -155 0 c-140 0 -155
2 -155 17 0 29 -90 956 -96 981 l-4 22 -570 0 -570 0 0 -250z m1010 84 c0 -9
18 -198 40 -420 22 -223 40 -411 40 -419 0 -12 -18 -15 -98 -15 l-99 0 -22
228 c-13 125 -28 274 -35 332 l-11 105 -338 3 -337 2 0 100 0 100 430 0 c387
0 430 -2 430 -16z m1320 -1469 l0 -105 -1330 0 -1330 0 0 105 0 105 1330 0
1330 0 0 -105z m-180 -266 c0 -15 -309 -2976 -315 -3026 l-6 -43 -235 0 -235
0 46 57 c81 99 123 203 132 328 5 69 3 87 -17 133 -25 58 -80 114 -131 132
l-34 12 1 105 0 105 35 15 c82 34 149 137 149 228 0 94 -69 195 -153 226 l-35
12 5 71 c3 39 1 88 -5 108 -9 35 -9 37 16 46 51 18 107 69 136 121 35 64 43
144 27 249 -49 314 -276 563 -585 642 -74 19 -110 20 -562 20 l-483 0 -6 33
c-4 28 -45 414 -45 430 0 4 518 7 1150 7 815 0 1150 -3 1150 -11z m-1237 -625
c121 -31 241 -105 322 -197 114 -131 186 -373 140 -471 -34 -71 47 -66 -1150
-66 -1182 0 -1117 -3 -1150 60 -19 37 -19 138 0 215 54 215 241 403 455 459
86 23 1296 23 1383 0z m273 -917 c17 -20 24 -40 24 -72 0 -36 -5 -47 -31 -69
-30 -25 -35 -26 -170 -26 l-139 0 0 -152 c0 -170 -6 -188 -66 -188 -23 0 -38
7 -53 26 -19 24 -21 40 -21 170 l0 144 -330 0 -329 0 -3 -326 -3 -326 -24 -19
c-28 -23 -59 -24 -86 -3 -19 14 -20 30 -25 347 l-5 332 -72 3 -73 3 0 -149 c0
-136 -2 -152 -21 -176 -24 -31 -72 -35 -101 -9 -16 14 -18 34 -18 170 l0 153
-164 0 c-91 0 -176 4 -191 10 -38 15 -60 73 -46 122 22 72 -39 68 994 65 l929
-2 24 -28z m-1694 -412 l3 -95 -191 0 -191 0 -27 26 c-38 38 -36 95 3 135 l29
29 186 0 185 0 3 -95z m1088 31 c0 -35 3 -78 6 -95 l7 -31 -187 0 -186 0 0 95
0 95 180 0 180 0 0 -64z m781 35 c21 -22 29 -39 29 -66 0 -27 -8 -44 -29 -66
l-29 -29 -159 0 -158 0 3 95 3 95 155 0 156 0 29 -29z m-3481 -166 c19 -10 76
-55 128 -101 246 -220 534 -347 836 -370 75 -6 86 -9 80 -23 -14 -31 -16 -165
-4 -220 18 -82 60 -168 113 -233 26 -32 47 -60 47 -63 0 -11 -221 -4 -340 10
-423 50 -815 236 -1113 526 -75 74 -87 91 -102 143 -43 148 32 297 173 343 48
16 139 10 182 -12z m1900 -248 l5 -97 -237 0 c-132 0 -248 4 -263 10 -39 15
-60 73 -45 123 18 63 38 67 305 64 l230 -2 5 -98z m1406 70 c27 -31 33 -100
11 -128 -29 -38 -44 -39 -523 -39 l-467 0 7 38 c3 20 6 65 6 100 l0 63 471 -3
471 -3 24 -28z m175 -346 c23 -24 29 -38 29 -73 -1 -158 -98 -304 -249 -377
l-76 -36 -814 -3 c-711 -2 -821 -1 -875 13 -176 45 -304 198 -314 375 -4 76
-4 76 28 103 l32 27 1105 0 1105 0 29 -29z"/>
<path d="M2080 2325 l0 -75 75 0 75 0 0 75 0 75 -75 0 -75 0 0 -75z"/>
<path d="M2380 2325 l0 -75 75 0 76 0 -3 73 -3 72 -72 3 -73 3 0 -76z"/>
<path d="M1530 2765 l0 -75 75 0 75 0 0 75 0 75 -75 0 -75 0 0 -75z"/>
<path d="M1220 2265 l0 -75 75 0 75 0 0 75 0 75 -75 0 -75 0 0 -75z"/>
<path d="M1077 1810 c-187 -47 -287 -253 -204 -422 33 -67 81 -112 155 -146
47 -21 65 -24 132 -20 92 5 145 32 208 104 133 150 70 403 -117 469 -57 20
-128 26 -174 15z m143 -167 c41 -24 63 -63 67 -117 12 -161 -203 -218 -275
-73 -33 65 -24 118 29 169 21 20 49 39 61 41 33 7 89 -3 118 -20z"/>
</g>
</svg>
