<?xml version="1.0" standalone="no"?>
<!DOCTYPE svg PUBLIC "-//W3C//DTD SVG 20010904//EN"
 "http://www.w3.org/TR/2001/REC-SVG-20010904/DTD/svg10.dtd">
<svg version="1.0" xmlns="http://www.w3.org/2000/svg"
 width="512.000000pt" height="512.000000pt" viewBox="0 0 512.000000 512.000000"
 preserveAspectRatio="xMidYMid meet">

<g transform="translate(0.000000,512.000000) scale(0.100000,-0.100000)"
fill="#000000" stroke="none">
<path d="M2375 5108 c-490 -49 -955 -313 -1250 -709 -162 -217 -266 -449 -325
-725 -31 -145 -38 -426 -15 -599 68 -505 317 -1148 654 -1688 342 -548 721
-888 1046 -939 300 -47 664 198 1031 694 317 428 614 1055 749 1584 56 217 76
352 82 544 7 234 -14 397 -79 600 -259 808 -1046 1324 -1893 1238z m497 -257
c618 -132 1085 -600 1220 -1225 19 -85 22 -132 22 -306 0 -174 -3 -221 -22
-306 -135 -624 -603 -1092 -1226 -1226 -149 -32 -455 -32 -608 0 -623 131
-1095 600 -1230 1226 -19 85 -22 132 -22 306 0 174 3 221 22 306 143 662 668
1152 1332 1244 110 15 401 4 512 -19z"/>
<path d="M2020 4571 c-292 -127 -566 -391 -691 -667 -95 -207 -124 -345 -124
-584 0 -239 29 -377 124 -584 131 -288 435 -572 734 -685 l27 -11 0 1280 c0
704 -1 1280 -2 1280 -2 -1 -32 -13 -68 -29z"/>
<path d="M3050 3320 c0 -698 3 -1270 6 -1270 3 0 43 18 89 40 272 130 515 373
644 644 174 365 174 807 0 1172 -129 272 -372 514 -644 643 -47 23 -88 41 -90
41 -3 0 -5 -571 -5 -1270z"/>
</g>
</svg>
