<?xml version="1.0" standalone="no"?>
<!DOCTYPE svg PUBLIC "-//W3C//DTD SVG 20010904//EN"
 "http://www.w3.org/TR/2001/REC-SVG-20010904/DTD/svg10.dtd">
<svg version="1.0" xmlns="http://www.w3.org/2000/svg"
 width="512.000000pt" height="512.000000pt" viewBox="0 0 512.000000 512.000000"
 preserveAspectRatio="xMidYMid meet">

<g transform="translate(0.000000,512.000000) scale(0.100000,-0.100000)"
fill="#000000" stroke="none">
<path d="M2380 4990 c-289 -61 -517 -236 -645 -495 -71 -142 -87 -218 -92
-437 l-5 -188 -342 0 c-258 0 -346 -3 -359 -13 -10 -6 -20 -28 -23 -47 -10
-69 -264 -3196 -264 -3250 1 -205 160 -397 363 -440 36 -7 512 -10 1577 -8
l1525 3 57 23 c174 70 298 245 298 421 0 55 -254 3182 -264 3251 -3 19 -13 41
-23 47 -13 10 -101 13 -359 13 l-342 0 -5 188 c-5 218 -21 293 -92 437 -183
373 -606 581 -1005 495z m322 -114 c262 -52 475 -214 582 -446 57 -125 67
-177 73 -377 l5 -183 -802 0 -802 0 5 183 c6 200 16 252 73 377 150 324 518
514 866 446z m-1062 -1358 c0 -201 2 -234 17 -250 20 -22 61 -23 85 -1 16 15
18 36 18 250 l0 233 800 0 800 0 0 -232 c0 -201 2 -234 17 -250 20 -22 61 -23
85 -1 16 15 18 36 18 250 l0 233 304 0 305 0 6 -52 c10 -89 225 -2718 225
-2754 l0 -34 -570 0 -570 0 0 449 0 450 22 7 c43 13 134 112 164 177 l29 62 3
253 c3 234 2 259 -17 320 -68 217 -306 322 -514 224 -83 -38 -141 -96 -180
-180 l-32 -67 0 -275 0 -275 27 -57 c32 -70 103 -148 158 -174 l40 -19 0 -447
0 -448 -315 0 -316 0 3 393 c3 453 -2 426 113 549 42 43 71 86 86 125 24 57
24 65 27 442 3 349 1 385 -14 402 -21 23 -61 24 -86 2 -17 -15 -18 -39 -18
-330 l0 -313 -95 0 -95 0 0 317 c0 280 -2 319 -17 335 -20 22 -61 23 -85 1
-17 -15 -18 -39 -18 -335 l0 -318 -105 0 -105 0 0 312 c0 276 -2 314 -17 330
-20 22 -61 23 -85 1 -17 -15 -18 -40 -18 -383 0 -305 3 -375 16 -420 20 -68
53 -120 125 -197 89 -96 89 -97 89 -540 l0 -373 -575 0 -575 0 0 34 c0 36 215
2665 225 2754 l6 52 305 0 304 0 0 -232z m1473 -764 c63 -21 131 -90 152 -154
14 -41 16 -87 13 -287 -3 -262 -5 -271 -72 -341 -52 -56 -101 -76 -181 -76
-78 0 -118 15 -173 68 -73 68 -77 84 -80 346 -4 253 1 287 46 353 63 94 181
130 295 91z m-763 -699 c0 -25 -39 -85 -89 -138 -33 -36 -70 -85 -82 -108 -46
-90 -49 -122 -49 -521 l0 -378 -29 0 -30 0 -3 403 c-3 395 -3 403 -27 460 -15
39 -44 81 -86 125 -52 56 -105 135 -105 157 0 3 113 5 250 5 138 0 250 -2 250
-5z m710 -715 l0 -430 -30 0 -30 0 0 430 0 430 30 0 30 0 0 -430z m1285 -675
c4 -68 4 -141 0 -162 -18 -97 -97 -196 -194 -242 l-56 -26 -1535 0 -1535 0
-56 26 c-97 46 -176 145 -194 242 -4 21 -4 94 0 162 l7 125 1778 0 1778 0 7
-125z"/>
<path d="M1040 570 c-45 -45 -9 -100 65 -100 32 0 51 6 65 20 45 45 9 100 -65
100 -32 0 -51 -6 -65 -20z"/>
<path d="M1322 574 c-30 -20 -30 -68 0 -88 19 -14 71 -16 368 -16 190 0 350 4
356 8 24 16 35 51 23 75 -7 12 -17 25 -23 29 -6 4 -166 8 -356 8 -297 0 -349
-2 -368 -16z"/>
</g>
</svg>
