<?xml version="1.0" standalone="no"?>
<!DOCTYPE svg PUBLIC "-//W3C//DTD SVG 20010904//EN"
 "http://www.w3.org/TR/2001/REC-SVG-20010904/DTD/svg10.dtd">
<svg version="1.0" xmlns="http://www.w3.org/2000/svg"
 width="512.000000pt" height="512.000000pt" viewBox="0 0 512.000000 512.000000"
 preserveAspectRatio="xMidYMid meet">

<g transform="translate(0.000000,512.000000) scale(0.100000,-0.100000)"
fill="#000000" stroke="none">
<path d="M1563 4986 c-240 -121 -442 -266 -641 -460 -432 -422 -691 -947 -767
-1551 -20 -157 -20 -464 0 -625 108 -868 644 -1622 1430 -2010 195 -96 312
-140 509 -190 205 -52 347 -71 569 -77 437 -13 851 78 1238 272 487 245 886
640 1138 1126 77 147 90 198 71 269 -16 58 -89 133 -145 149 -92 25 -128 13
-300 -103 -411 -278 -885 -390 -1392 -329 -132 15 -143 15 -167 0 -45 -30 -47
-113 -3 -142 69 -44 498 -62 730 -31 336 46 676 179 955 373 69 48 99 63 120
61 47 -5 41 -44 -28 -176 -369 -703 -1043 -1171 -1841 -1278 -162 -22 -474
-22 -622 0 -815 119 -1494 605 -1850 1324 -232 469 -308 976 -221 1487 127
749 607 1403 1287 1751 115 59 142 62 153 18 5 -19 -3 -38 -35 -82 -583 -808
-555 -1891 69 -2677 139 -175 350 -362 555 -490 149 -94 441 -225 500 -225 33
0 74 39 81 76 9 48 -29 85 -123 119 -398 144 -765 437 -1002 799 -62 96 -160
293 -202 406 -81 224 -119 446 -119 698 1 311 53 559 175 832 53 118 85 174
197 343 78 119 84 135 78 217 -7 104 -106 190 -219 190 -41 0 -72 -11 -178
-64z"/>
<path d="M3624 4301 c-59 -37 -66 -116 -13 -167 53 -51 146 -28 169 42 33 98
-70 180 -156 125z"/>
<path d="M2942 4104 c-39 -16 -40 -18 -56 -113 -18 -103 -47 -163 -108 -224
-59 -59 -135 -95 -230 -109 -52 -8 -78 -17 -95 -34 -44 -44 -20 -126 40 -138
12 -3 51 -10 87 -16 82 -15 148 -51 204 -110 56 -60 81 -110 96 -191 7 -35 14
-74 16 -86 10 -54 84 -81 131 -48 24 16 43 70 43 120 1 42 41 136 79 183 61
78 191 142 288 142 76 0 116 92 62 145 -18 18 -42 26 -98 34 -91 12 -163 47
-224 108 -61 61 -96 133 -108 224 -15 106 -57 143 -127 113z m148 -575 c-36
-28 -75 -71 -105 -117 -1 -1 -38 33 -82 77 l-79 80 57 51 c32 28 65 63 74 78
l17 28 81 -81 82 -80 -45 -36z"/>
<path d="M3690 2886 c-127 -34 -203 -133 -203 -261 0 -151 115 -267 266 -267
154 0 268 114 268 267 0 109 -51 195 -144 239 -65 31 -129 38 -187 22z m109
-180 c27 -14 51 -53 51 -82 0 -30 -30 -71 -59 -84 -85 -35 -167 64 -115 138
28 41 77 52 123 28z"/>
<path d="M2914 2602 c-46 -36 -56 -93 -27 -142 45 -77 168 -61 192 25 11 41
-4 90 -35 114 -33 26 -100 28 -130 3z"/>
<path d="M90 1303 c-40 -13 -61 -29 -76 -61 -23 -48 -6 -105 39 -132 41 -25
73 -25 114 0 45 27 62 84 39 132 -21 44 -77 74 -116 61z"/>
<path d="M330 741 c-75 -24 -148 -90 -177 -160 -20 -46 -20 -156 0 -202 21
-50 82 -116 131 -142 58 -31 184 -31 241 0 108 58 165 174 143 294 -15 80 -69
153 -143 191 -43 23 -152 33 -195 19z m141 -197 c32 -35 32 -93 0 -128 -37
-39 -100 -37 -135 5 -33 39 -33 79 0 118 35 42 98 44 135 5z"/>
</g>
</svg>
