<?xml version="1.0" standalone="no"?>
<!DOCTYPE svg PUBLIC "-//W3C//DTD SVG 20010904//EN"
 "http://www.w3.org/TR/2001/REC-SVG-20010904/DTD/svg10.dtd">
<svg version="1.0" xmlns="http://www.w3.org/2000/svg"
 width="512.000000pt" height="512.000000pt" viewBox="0 0 512.000000 512.000000"
 preserveAspectRatio="xMidYMid meet">

<g transform="translate(0.000000,512.000000) scale(0.100000,-0.100000)"
fill="#000000" stroke="none">
<path d="M605 4948 c-27 -5 -86 -27 -131 -48 -152 -73 -274 -232 -303 -394
-16 -87 -15 -926 1 -980 16 -55 99 -138 154 -154 23 -7 85 -12 138 -12 l96 0
0 -1359 0 -1359 -55 -7 c-75 -9 -183 -65 -235 -121 -57 -62 -99 -155 -107
-237 -5 -61 -4 -67 20 -91 l26 -26 2351 0 2351 0 26 26 c24 24 25 30 20 91 -8
82 -50 175 -107 237 -52 56 -160 112 -235 121 l-55 7 0 819 c0 694 2 818 14
813 22 -8 136 16 180 38 65 33 102 65 139 121 88 129 88 285 0 414 -38 56 -74
88 -139 121 -45 23 -156 45 -179 35 -13 -4 -15 22 -15 176 l0 181 98 0 c129 0
178 17 235 80 26 28 49 67 56 92 9 31 11 169 9 513 l-3 470 -26 66 c-36 94
-70 148 -133 212 -62 63 -119 99 -215 136 l-66 26 -1930 1 c-1180 1 -1949 -2
-1980 -8z m3967 -190 c91 -45 147 -103 191 -196 l32 -67 3 -462 3 -463 -25
-25 -25 -25 -2191 0 -2191 0 -25 25 -25 25 3 463 3 462 32 67 c17 37 50 87 72
111 44 48 135 101 197 116 23 5 821 8 1955 8 l1915 -2 76 -37z m-2812 -1534
c0 -78 5 -154 12 -178 23 -78 135 -166 212 -166 14 0 16 -17 16 -136 0 -78 5
-154 12 -178 23 -78 135 -166 212 -166 14 0 16 -14 16 -95 0 -88 2 -98 25
-120 32 -33 78 -33 110 0 23 22 25 32 25 120 l0 95 160 0 160 0 0 -95 c0 -88
2 -98 25 -120 32 -33 78 -33 110 0 23 22 25 32 25 120 0 81 2 95 16 95 65 0
169 69 194 130 l12 30 129 0 c127 0 129 0 129 -22 0 -13 10 -41 23 -63 40 -73
59 -77 542 -129 237 -26 440 -49 453 -52 l22 -4 0 -825 0 -825 -645 0 -644 0
50 102 c27 56 59 128 71 160 l21 58 72 0 c102 0 169 15 251 55 126 62 227 195
254 334 14 73 13 275 -2 323 -6 22 -31 62 -55 88 -61 68 -102 80 -275 80
l-138 0 0 55 c0 46 -4 60 -25 80 l-24 25 -751 0 -751 0 -24 -25 -25 -24 0
-231 c0 -260 10 -374 47 -540 34 -157 74 -272 143 -417 l59 -123 -645 0 -644
0 0 1360 0 1360 520 0 520 0 0 -136z m1440 1 c0 -131 -1 -137 -25 -160 l-24
-25 -591 0 -591 0 -24 25 c-24 23 -25 29 -25 160 l0 135 640 0 640 0 0 -135z
m1200 -50 c0 -183 0 -185 -22 -189 -13 -3 -214 -26 -448 -51 -242 -26 -443
-53 -468 -61 -50 -18 -90 -67 -99 -118 l-6 -36 -118 0 -119 0 0 80 c0 67 3 80
16 80 77 0 189 88 212 166 7 24 12 100 12 178 l0 136 520 0 520 0 0 -185z
m-1440 -430 c0 -131 -1 -137 -25 -160 l-24 -25 -351 0 -351 0 -24 25 c-24 23
-25 29 -25 160 l0 135 400 0 400 0 0 -135z m1734 72 c22 -12 54 -42 71 -65 26
-38 30 -52 30 -112 0 -60 -4 -74 -30 -111 -33 -47 -77 -77 -131 -89 -25 -6
-203 10 -567 51 -291 32 -534 59 -539 59 -4 0 -8 41 -8 90 0 79 2 90 18 91 9
0 247 27 527 59 281 32 528 56 550 54 22 -3 57 -15 79 -27z m-1497 -1204 c-3
-139 -11 -259 -20 -308 -45 -237 -114 -426 -224 -608 l-34 -57 -359 0 -359 0
-34 58 c-110 181 -179 370 -224 607 -9 49 -17 169 -20 308 l-6 227 643 0 643
0 -6 -227z m460 41 c25 -25 25 -26 21 -162 -4 -133 -5 -139 -38 -200 -56 -106
-142 -160 -268 -169 -71 -6 -75 -5 -68 13 19 49 48 264 53 397 l6 147 134 0
c130 0 135 -1 160 -26z m977 -1186 c45 -13 146 -105 146 -132 0 -15 -212 -16
-2220 -16 -2008 0 -2220 1 -2220 16 0 24 101 119 140 131 53 17 4097 17 4154
1z"/>
<path d="M2441 4624 c-253 -68 -410 -331 -346 -579 67 -256 329 -415 580 -350
237 62 393 291 358 529 -40 283 -322 473 -592 400z m254 -175 c63 -30 123 -90
155 -154 20 -41 25 -65 25 -135 -1 -77 -4 -91 -34 -148 -38 -70 -70 -101 -145
-140 -43 -22 -64 -26 -136 -26 -70 -1 -94 4 -135 24 -260 128 -238 495 35 594
63 23 170 16 235 -15z"/>
<path d="M800 4387 c-19 -6 -58 -34 -85 -62 -71 -70 -91 -145 -63 -239 16 -55
99 -138 154 -154 94 -28 169 -8 239 63 102 101 102 229 0 330 -70 71 -152 91
-245 62z m135 -172 c50 -49 15 -135 -55 -135 -41 0 -80 39 -80 80 0 41 39 80
80 80 19 0 40 -9 55 -25z"/>
<path d="M1520 4387 c-49 -16 -133 -102 -148 -153 -28 -94 -8 -169 63 -239 51
-52 102 -75 165 -75 63 0 114 23 165 75 102 101 102 229 0 330 -70 71 -152 91
-245 62z m135 -172 c50 -49 15 -135 -55 -135 -41 0 -80 39 -80 80 0 41 39 80
80 80 19 0 40 -9 55 -25z"/>
<path d="M3440 4387 c-49 -16 -133 -102 -148 -153 -28 -94 -8 -169 63 -239 51
-52 102 -75 165 -75 124 0 240 116 240 240 0 63 -23 114 -75 165 -70 71 -152
91 -245 62z m135 -172 c16 -15 25 -36 25 -55 0 -19 -9 -40 -25 -55 -15 -16
-36 -25 -55 -25 -19 0 -40 9 -55 25 -16 15 -25 36 -25 55 0 19 9 40 25 55 15
16 36 25 55 25 19 0 40 -9 55 -25z"/>
<path d="M4160 4387 c-49 -16 -133 -102 -148 -153 -28 -94 -8 -169 63 -239 51
-52 102 -75 165 -75 124 0 240 116 240 240 0 63 -23 114 -75 165 -70 71 -152
91 -245 62z m135 -172 c16 -15 25 -36 25 -55 0 -19 -9 -40 -25 -55 -15 -16
-36 -25 -55 -25 -19 0 -40 9 -55 25 -16 15 -25 36 -25 55 0 19 9 40 25 55 15
16 36 25 55 25 19 0 40 -9 55 -25z"/>
</g>
</svg>
