<?xml version="1.0" standalone="no"?>
<!DOCTYPE svg PUBLIC "-//W3C//DTD SVG 20010904//EN"
 "http://www.w3.org/TR/2001/REC-SVG-20010904/DTD/svg10.dtd">
<svg version="1.0" xmlns="http://www.w3.org/2000/svg"
 width="512.000000pt" height="512.000000pt" viewBox="0 0 512.000000 512.000000"
 preserveAspectRatio="xMidYMid meet">

<g transform="translate(0.000000,512.000000) scale(0.100000,-0.100000)"
fill="#000000" stroke="none">
<path d="M2480 5027 c-49 -16 -133 -102 -148 -153 -17 -57 -17 -491 0 -548 16
-55 99 -138 154 -154 96 -28 182 -4 247 68 24 26 49 66 55 88 8 25 12 121 12
272 0 151 -4 247 -12 272 -17 59 -88 133 -145 152 -53 18 -112 19 -163 3z
m113 -158 c14 -6 30 -22 36 -36 15 -33 15 -433 0 -467 -26 -55 -112 -55 -138
0 -15 34 -15 434 0 468 18 40 60 54 102 35z"/>
<path d="M873 4359 c-48 -24 -99 -77 -119 -125 -20 -47 -17 -141 5 -189 12
-25 87 -108 202 -221 173 -171 187 -182 237 -194 181 -42 334 111 292 292 -12
50 -23 64 -194 237 -113 115 -196 190 -221 202 -56 26 -148 25 -202 -2z m293
-290 c84 -84 158 -165 165 -182 15 -36 -1 -73 -42 -96 -43 -24 -74 -2 -238
163 -135 136 -151 156 -151 186 0 46 33 80 79 80 31 0 49 -14 187 -151z"/>
<path d="M4050 4365 c-45 -20 -375 -347 -403 -400 -28 -52 -29 -154 -3 -205
26 -49 64 -88 111 -113 55 -29 155 -29 210 0 22 12 119 102 216 200 195 197
204 211 197 319 -5 75 -37 130 -106 179 -37 25 -54 30 -115 32 -49 2 -83 -2
-107 -12z m145 -170 c16 -15 25 -35 25 -56 0 -28 -19 -52 -151 -185 -84 -84
-165 -158 -182 -165 -36 -15 -73 1 -96 42 -24 43 -2 74 163 238 133 132 157
151 185 151 21 0 41 -9 56 -25z"/>
<path d="M2375 3989 c-617 -83 -1108 -548 -1232 -1166 -26 -132 -24 -415 5
-545 65 -297 190 -527 396 -734 207 -206 437 -331 734 -396 140 -31 424 -31
564 0 297 65 526 189 733 397 210 209 343 459 402 752 24 121 24 393 0 518
-113 585 -549 1031 -1130 1156 -108 23 -364 33 -472 18z m335 -159 c289 -36
544 -161 751 -369 312 -313 437 -730 348 -1163 -99 -490 -484 -876 -984 -989
-144 -32 -377 -32 -524 0 -503 108 -885 490 -992 991 -32 148 -32 372 0 519
52 242 160 447 330 625 278 290 678 434 1071 386z"/>
<path d="M2367 3584 c-383 -69 -716 -378 -811 -754 l-24 -95 70 -13 c39 -7 76
-11 82 -9 7 3 18 31 25 62 32 140 119 295 230 406 146 146 335 235 544 254
l77 7 0 79 0 79 -57 -1 c-32 0 -93 -7 -136 -15z"/>
<path d="M1523 2479 c3 -44 8 -83 11 -86 5 -6 146 14 154 21 2 2 0 36 -4 75
l-7 71 -80 0 -80 0 6 -81z"/>
<path d="M240 2787 c-19 -6 -58 -34 -85 -62 -71 -70 -91 -145 -63 -239 16 -55
99 -138 154 -154 27 -8 121 -12 276 -12 278 0 304 6 371 80 90 100 90 220 0
320 -67 75 -92 80 -377 79 -145 -1 -255 -5 -276 -12z m514 -158 c55 -26 55
-112 0 -138 -34 -15 -434 -15 -468 0 -35 16 -52 61 -37 98 7 16 22 33 34 39
31 15 439 15 471 1z"/>
<path d="M4320 2787 c-49 -16 -133 -102 -148 -153 -28 -94 -8 -169 63 -239 31
-32 65 -55 91 -63 27 -8 121 -12 276 -12 278 0 304 6 371 80 90 100 90 220 0
320 -67 75 -92 80 -377 79 -145 -1 -255 -5 -276 -12z m514 -158 c55 -26 55
-112 0 -138 -34 -15 -434 -15 -468 0 -35 16 -52 61 -37 98 7 16 22 33 34 39
31 15 439 15 471 1z"/>
<path d="M1185 1488 c-32 -9 -76 -46 -224 -192 -115 -113 -190 -196 -202 -221
-38 -82 -13 -212 52 -272 63 -58 180 -80 257 -48 46 20 375 343 405 400 28 52
29 154 3 205 -56 108 -175 160 -291 128z m126 -177 c54 -54 42 -75 -148 -263
-130 -129 -154 -148 -182 -148 -43 0 -81 38 -81 81 0 28 19 51 143 177 192
195 213 207 268 153z"/>
<path d="M3800 1491 c-71 -23 -122 -66 -156 -131 -26 -51 -25 -153 3 -205 31
-58 359 -380 407 -400 117 -49 262 11 311 129 21 50 21 132 0 182 -20 48 -342
376 -399 406 -43 22 -127 32 -166 19z m98 -165 c15 -8 93 -81 175 -163 131
-133 147 -153 147 -183 0 -46 -33 -80 -78 -80 -32 0 -50 14 -185 148 -190 188
-202 209 -148 263 33 33 50 35 89 15z"/>
<path d="M2480 947 c-49 -16 -133 -102 -148 -153 -17 -57 -17 -491 0 -548 16
-55 99 -138 154 -154 96 -28 182 -4 247 68 24 26 49 66 55 88 8 25 12 121 12
272 0 151 -4 247 -12 272 -17 59 -88 133 -145 152 -53 18 -112 19 -163 3z
m113 -158 c14 -6 30 -22 36 -36 15 -33 15 -433 0 -467 -26 -55 -112 -55 -138
0 -15 34 -15 434 0 468 18 40 60 54 102 35z"/>
</g>
</svg>
