<?xml version="1.0" standalone="no"?>
<!DOCTYPE svg PUBLIC "-//W3C//DTD SVG 20010904//EN"
 "http://www.w3.org/TR/2001/REC-SVG-20010904/DTD/svg10.dtd">
<svg version="1.0" xmlns="http://www.w3.org/2000/svg"
 width="512.000000pt" height="512.000000pt" viewBox="0 0 512.000000 512.000000"
 preserveAspectRatio="xMidYMid meet">

<g transform="translate(0.000000,512.000000) scale(0.100000,-0.100000)"
fill="#000000" stroke="none">
<path d="M2375 5109 c-750 -82 -1370 -620 -1554 -1347 -86 -338 -65 -698 65
-1149 242 -839 784 -1708 1263 -2024 295 -195 527 -195 827 3 133 87 344 294
478 468 327 425 609 983 775 1536 180 600 160 1078 -65 1528 -260 519 -738
871 -1319 971 -114 20 -353 27 -470 14z m496 -258 c313 -68 563 -204 790 -430
181 -182 292 -357 373 -590 66 -189 80 -280 80 -511 0 -231 -14 -322 -80 -511
-81 -233 -192 -408 -373 -590 -228 -227 -475 -362 -795 -431 -86 -19 -132 -22
-306 -22 -174 0 -220 3 -306 22 -318 69 -566 204 -795 432 -181 181 -292 356
-373 589 -66 189 -80 280 -80 511 0 231 14 322 80 511 81 232 192 408 373 590
227 226 487 368 790 428 140 29 149 29 346 26 134 -3 204 -9 276 -24z"/>
<path d="M2417 4673 c-4 -3 -7 -273 -7 -600 l0 -593 -599 0 -599 0 -6 -22 c-8
-30 -8 -233 0 -292 l7 -46 598 0 599 0 2 -577 3 -578 115 -3 c63 -2 134 0 158
3 l42 6 0 575 0 574 589 0 588 0 7 46 c8 59 8 262 0 292 l-6 22 -589 0 -589 0
0 594 0 594 -31 6 c-42 8 -274 8 -282 -1z"/>
<path d="M2275 4652 c-55 -9 -229 -68 -302 -103 -164 -78 -341 -215 -455 -352
-26 -32 -48 -62 -48 -66 0 -10 821 -474 827 -468 2 2 2 226 1 498 -3 488 -3
494 -23 491z"/>
<path d="M2840 4155 c0 -272 2 -495 5 -495 7 0 797 440 809 451 13 12 -64 107
-160 199 -98 92 -231 184 -347 239 -80 38 -262 101 -292 101 -13 0 -15 -63
-15 -495z"/>
<path d="M3321 3817 l-403 -212 111 -3 111 -3 308 171 c169 94 310 174 313
178 3 4 -4 24 -15 44 l-22 37 -403 -212z"/>
<path d="M1349 3946 c-13 -25 -21 -47 -19 -50 3 -2 122 -70 264 -150 l259
-146 111 0 c65 0 106 4 100 9 -15 15 -671 381 -681 381 -6 0 -21 -20 -34 -44z"/>
<path d="M1279 3783 c-22 -58 -53 -173 -47 -178 3 -3 101 -4 217 -3 l213 3
-181 103 c-100 56 -184 102 -186 102 -3 0 -10 -12 -16 -27z"/>
<path d="M3675 3714 c-82 -47 -161 -91 -175 -99 -22 -13 -2 -14 183 -15 159 0
207 3 207 13 0 20 -53 187 -59 186 -3 0 -73 -39 -156 -85z"/>
<path d="M1240 2988 c0 -7 14 -55 31 -106 30 -90 32 -93 52 -79 12 7 93 53
180 102 86 48 157 89 157 91 0 2 -94 4 -210 4 -161 0 -210 -3 -210 -12z"/>
<path d="M1725 2824 c-170 -96 -317 -179 -325 -184 -16 -9 -8 -30 29 -79 l18
-24 399 223 c219 123 403 227 409 231 5 5 -41 9 -105 8 l-115 0 -310 -175z"/>
<path d="M3116 2991 c5 -5 128 -75 274 -156 146 -81 284 -158 307 -171 l42
-24 27 46 c23 39 25 47 13 59 -8 7 -113 67 -234 134 l-219 121 -110 0 c-66 0
-106 -4 -100 -9z"/>
<path d="M3505 2982 c68 -42 316 -174 319 -171 6 8 56 164 56 177 0 9 -47 12
-202 12 -201 0 -203 0 -173 -18z"/>
<path d="M1895 2716 c-220 -123 -401 -229 -403 -235 -6 -18 205 -221 289 -278
136 -93 329 -178 477 -211 l42 -10 0 479 c0 263 -1 479 -3 479 -1 0 -182 -101
-402 -224z"/>
<path d="M2840 2465 c0 -414 2 -475 15 -475 8 0 59 14 112 31 220 70 391 175
561 345 61 62 112 117 112 123 0 8 -781 451 -795 451 -3 0 -5 -214 -5 -475z"/>
</g>
</svg>
